<svg xmlns="http://www.w3.org/2000/svg" width="512" height="512" viewBox="0 0 512 512">
  <defs>
    <linearGradient id="bg" x1="0" y1="0" x2="1" y2="1">
      <stop offset="0" stop-color="#1a1040"/>
      <stop offset="1" stop-color="#3b1268"/>
    </linearGradient>
  </defs>
  <rect width="512" height="512" fill="url(#bg)"/>
  <!-- soundwave arcs -->
  <g stroke="#ff7a2f" stroke-width="26" stroke-linecap="round" fill="none" opacity="0.95">
    <path d="M 322 176 a 90 90 0 0 1 0 160"/>
    <path d="M 362 136 a 148 148 0 0 1 0 240" opacity="0.6"/>
    <path d="M 402 96 a 206 206 0 0 1 0 320" opacity="0.3"/>
  </g>
  <!-- handset -->
  <path d="M 132 96 q -44 8 -36 66 q 14 110 84 180 t 180 84 q 58 8 66 -36 l 10 -54 q 4 -26 -20 -36 l -64 -26 q -20 -8 -34 8 l -22 24 q -52 -24 -88 -60 t -60 -88 l 24 -22 q 16 -14 8 -34 l -26 -64 q -10 -24 -36 -20 z"
        fill="#ffffff"/>
  <!-- wordmark -->
  <text x="256" y="470" text-anchor="middle" font-family="Arial, Helvetica, sans-serif" font-size="64" font-weight="800" fill="#ffffff" letter-spacing="1">RingTask</text>
</svg>
