<svg xmlns="http://www.w3.org/2000/svg" width="512" height="512" viewBox="0 0 512 512">
  <defs>
    <linearGradient id="bg" x1="0" y1="0" x2="1" y2="1">
      <stop offset="0" stop-color="#0a2540"/>
      <stop offset="1" stop-color="#1e6fff"/>
    </linearGradient>
  </defs>
  <rect width="512" height="512" fill="url(#bg)"/>
  <!-- crisp phone glyph (Material), centered, scaled 24 -> 300 -->
  <g transform="translate(106,106) scale(12.5)">
    <path d="M6.62 10.79c1.44 2.83 3.76 5.14 6.59 6.59l2.2-2.21c.27-.27.67-.36 1.02-.24 1.12.37 2.33.57 3.57.57.55 0 1 .45 1 1V20c0 .55-.45 1-1 1-9.39 0-17-7.61-17-17 0-.55.45-1 1-1h3.5c.55 0 1 .45 1 1 0 1.25.2 2.45.57 3.57.11.35.03.74-.25 1.02l-2.2 2.2z" fill="#ffffff"/>
  </g>
  <!-- single subtle ring accent, top-right -->
  <g stroke="#7fb4ff" stroke-width="16" stroke-linecap="round" fill="none">
    <path d="M 352 128 a 64 64 0 0 1 32 56" opacity="0.9"/>
    <path d="M 384 92 a 110 110 0 0 1 44 84" opacity="0.45"/>
  </g>
</svg>
